<svg width="40" height="40" viewBox="0 0 40 40" fill="none" xmlns="http://www.w3.org/2000/svg">
<path d="M21.6666 29.1666V36.6666L24.9999 34.1666L28.3332 36.6666V29.1666M16.6667 31.6666H8.33333C7.44928 31.6666 6.60143 31.3155 5.97631 30.6903C5.35119 30.0652 5 29.2174 5 28.3333V11.6666C5 9.83331 6.5 8.33331 8.33333 8.33331H31.6667C32.5507 8.33331 33.3986 8.6845 34.0237 9.30962C34.6488 9.93474 35 10.7826 35 11.6666V28.3333C34.9994 28.9179 34.8451 29.492 34.5526 29.998C34.26 30.5041 33.8396 30.9244 33.3333 31.2166M10 15H30M10 20H15M10 25H13.3333M30 25C30 27.7614 27.7614 30 25 30C22.2386 30 20 27.7614 20 25C20 22.2386 22.2386 20 25 20C27.7614 20 30 22.2386 30 25Z" stroke="url(#paint0_linear_71_75050)" stroke-width="2" stroke-linecap="round" stroke-linejoin="round"/>
<defs>
<linearGradient id="paint0_linear_71_75050" x1="7.5" y1="8.11536" x2="39.4937" y2="38.1879" gradientUnits="userSpaceOnUse">
<stop stop-color="#6B2EE6"/>
<stop offset="1" stop-color="#F50387"/>
</linearGradient>
</defs>
</svg>
