<svg width="40" height="40" viewBox="0 0 40 40" fill="none" xmlns="http://www.w3.org/2000/svg">
<path d="M13.3335 18.3333V9.99998C13.3335 8.23187 14.0359 6.53618 15.2861 5.28593C16.5364 4.03569 18.2321 3.33331 20.0002 3.33331C21.7683 3.33331 23.464 4.03569 24.7142 5.28593C25.9645 6.53618 26.6668 8.23187 26.6668 9.99998M11.6668 18.3333H28.3335C30.1744 18.3333 31.6668 19.8257 31.6668 21.6666V31.6666C31.6668 33.5076 30.1744 35 28.3335 35H11.6668C9.82588 35 8.3335 33.5076 8.3335 31.6666V21.6666C8.3335 19.8257 9.82588 18.3333 11.6668 18.3333ZM21.6668 26.6666C21.6668 27.5871 20.9206 28.3333 20.0002 28.3333C19.0797 28.3333 18.3335 27.5871 18.3335 26.6666C18.3335 25.7462 19.0797 25 20.0002 25C20.9206 25 21.6668 25.7462 21.6668 26.6666Z" stroke="url(#paint0_linear_71_75056)" stroke-width="2" stroke-linecap="round" stroke-linejoin="round"/>
<defs>
<linearGradient id="paint0_linear_71_75056" x1="10.2779" y1="3.08972" x2="43.1025" y2="24.5609" gradientUnits="userSpaceOnUse">
<stop stop-color="#6B2EE6"/>
<stop offset="1" stop-color="#F50387"/>
</linearGradient>
</defs>
</svg>
