<svg width="40" height="40" viewBox="0 0 40 40" fill="none" xmlns="http://www.w3.org/2000/svg">
<path d="M9.88495 11.56L12.0099 18.6416M21.3549 27.99L28.4399 30.115M19.4717 20.5283L29.0701 10.93M11.6666 9.16663C11.6666 10.5473 10.5473 11.6666 9.16656 11.6666C7.78585 11.6666 6.66656 10.5473 6.66656 9.16663C6.66656 7.78591 7.78585 6.66663 9.16656 6.66663C10.5473 6.66663 11.6666 7.78591 11.6666 9.16663ZM33.3334 9.16663C33.3334 10.5473 32.2141 11.6666 30.8334 11.6666C29.4527 11.6666 28.3334 10.5473 28.3334 9.16663C28.3334 7.78591 29.4527 6.66663 30.8334 6.66663C32.2141 6.66663 33.3334 7.78591 33.3334 9.16663ZM33.3334 30.8333C33.3334 32.214 32.2141 33.3333 30.8334 33.3333C29.4527 33.3333 28.3334 32.214 28.3334 30.8333C28.3334 29.4526 29.4527 28.3333 30.8334 28.3333C32.2141 28.3333 33.3334 29.4526 33.3334 30.8333ZM21.6666 25.8333C21.6666 29.9754 18.3087 33.3333 14.1666 33.3333C10.0244 33.3333 6.66656 29.9754 6.66656 25.8333C6.66656 21.6912 10.0244 18.3333 14.1666 18.3333C18.3087 18.3333 21.6666 21.6912 21.6666 25.8333Z" stroke="url(#paint0_linear_259_9434)" stroke-width="2" stroke-linecap="round" stroke-linejoin="round"/>
<defs>
<linearGradient id="paint0_linear_259_9434" x1="8.8888" y1="6.46149" x2="38.8457" y2="33.0553" gradientUnits="userSpaceOnUse">
<stop stop-color="#6B2EE6"/>
<stop offset="1" stop-color="#F50387"/>
</linearGradient>
</defs>
</svg>
